<svg width="34" height="34" viewBox="0 0 34 34" fill="none" xmlns="http://www.w3.org/2000/svg">
<circle cx="17" cy="17" r="16" stroke="white" stroke-width="2"/>
<path d="M23.5889 8.62354C25.5751 8.62358 27.2 10.2463 27.2002 12.231V20.9409C27.2002 22.9189 25.5821 24.5424 23.5957 24.5425H18.585L17.7324 26.0161L16.8926 27.4683C16.7356 27.7343 16.3533 27.7343 16.2031 27.4683L15.3633 26.0161L14.5098 24.5425H9.55469C7.57511 24.5425 5.9502 22.9257 5.9502 20.9409V12.2241C5.95039 10.2463 7.56841 8.62354 9.55469 8.62354H23.5889ZM21.8281 15.0142C20.8247 15.0142 20.0117 15.8534 20.0117 16.8833C20.012 17.913 20.8248 18.7515 21.8281 18.7515C22.2443 18.7514 22.6265 18.6083 22.9268 18.3696V18.8882C22.9254 18.8946 22.8124 19.3999 22.0527 19.3999V20.3618C22.0527 20.3618 22.879 20.4568 23.6162 19.7202C23.6206 19.7156 23.9576 19.3557 24.0322 18.8813V15.0894H22.9268V15.396C22.6197 15.1574 22.2375 15.0143 21.8281 15.0142ZM9.11719 18.7925H10.21V18.4448C10.5171 18.7176 10.906 18.8881 11.3359 18.8882C12.3119 18.8882 13.1043 18.0223 13.1045 16.9517C13.1045 15.8808 12.3189 15.0073 11.3359 15.0073C10.9128 15.0074 10.5171 15.1711 10.21 15.4507V13.8481H9.11719V18.7925ZM17.5547 15.0073C16.4693 15.0073 15.5889 15.874 15.5889 16.9448C15.589 18.0155 16.4694 18.8813 17.5547 18.8813C18.6399 18.8813 19.5203 18.0155 19.5205 16.9448C19.5205 15.874 18.6468 15.0074 17.5547 15.0073ZM13.2275 13.7524V14.7417C13.2439 14.744 13.7342 14.8184 13.8281 15.3013V18.7935H14.9541V15.2739C14.8871 14.792 14.6033 14.4279 14.5928 14.4146C13.9604 13.6684 13.2479 13.7499 13.2275 13.7524ZM11.1182 15.9761C11.664 15.9763 12.1006 16.4061 12.1006 16.9448C12.1004 17.4833 11.6639 17.9124 11.1182 17.9126C10.7155 17.9126 10.367 17.6743 10.2168 17.3267C10.1691 17.2108 10.1348 17.0811 10.1348 16.9448C10.1348 16.8084 10.1622 16.678 10.2168 16.562C10.3671 16.2144 10.7156 15.9761 11.1182 15.9761ZM17.5547 16.0171C18.0734 16.0172 18.4961 16.4333 18.4961 16.9448C18.4959 17.4562 18.0801 17.8725 17.5547 17.8726C17.036 17.8726 16.6125 17.4562 16.6123 16.9448C16.6123 16.4333 17.0359 16.0171 17.5547 16.0171ZM22.0322 15.9214C22.4213 15.9214 22.7629 16.1399 22.9268 16.4536C22.9949 16.5831 23.0293 16.7266 23.0293 16.8765C23.0292 17.0264 22.9881 17.1767 22.9268 17.2993C22.7629 17.6197 22.4212 17.8306 22.0322 17.8306C21.4796 17.8304 21.0364 17.4014 21.0361 16.8765C21.0361 16.3514 21.4862 15.9215 22.0322 15.9214Z" fill="white"/>
</svg>
