<svg width="50" height="50" viewBox="0 0 50 50" fill="none" xmlns="http://www.w3.org/2000/svg">
<path d="M15.0291 7.47085L16.409 6.09099C17.2877 5.21231 18.7123 5.21231 19.591 6.09099L25.409 11.909C26.2877 12.7877 26.2877 14.2123 25.409 15.091L21.3761 19.1239C20.7036 19.7964 20.5369 20.8238 20.9622 21.6744C23.4209 26.5918 27.4082 30.5791 32.3256 33.0378C33.1762 33.4631 34.2036 33.2964 34.8761 32.6239L38.909 28.591C39.7877 27.7123 41.2123 27.7123 42.091 28.591L47.909 34.409C48.7877 35.2877 48.7877 36.7123 47.909 37.591L46.5291 38.9709C41.7786 43.7214 34.2578 44.2559 28.8832 40.2249L26.1643 38.1857C22.2413 35.2435 18.7565 31.7587 15.8143 27.8357L13.7751 25.1168C9.74412 19.7422 10.2786 12.2214 15.0291 7.47085Z" fill="#C8868B"/>
</svg>
