<svg width="50" height="50" viewBox="0 0 50 50" fill="none" xmlns="http://www.w3.org/2000/svg">
<path d="M4.1665 14.4167C4.1665 12.5311 4.1665 11.5883 4.75229 11.0025C5.33808 10.4167 6.28089 10.4167 8.1665 10.4167H41.8332C43.7188 10.4167 44.6616 10.4167 45.2474 11.0025C45.8332 11.5883 45.8332 12.5311 45.8332 14.4167V19.8334C45.8332 20.3048 45.8332 20.5405 45.6867 20.6869C45.5403 20.8334 45.3046 20.8334 44.8332 20.8334H5.16651C4.6951 20.8334 4.4594 20.8334 4.31295 20.6869C4.1665 20.5405 4.1665 20.3048 4.1665 19.8334V14.4167Z" fill="#C8868B"/>
<path d="M44.833 25C45.3042 25 45.5401 25.0002 45.6865 25.1465C45.833 25.2929 45.833 25.5286 45.833 26V41.833C45.833 43.7186 45.8329 44.6613 45.2471 45.2471C44.6613 45.8329 43.7186 45.833 41.833 45.833H8.16699C6.28137 45.833 5.33872 45.8329 4.75293 45.2471C4.16714 44.6613 4.16699 43.7186 4.16699 41.833V26C4.16699 25.5286 4.16703 25.2929 4.31348 25.1465C4.45993 25.0002 4.69576 25 5.16699 25H44.833ZM15.583 37.5C15.1118 37.5 14.8759 37.5001 14.7295 37.6465C14.5832 37.7929 14.583 38.0288 14.583 38.5V40.667C14.583 41.1382 14.5831 41.3741 14.7295 41.5205C14.8759 41.6669 15.1118 41.667 15.583 41.667H21.917C22.3882 41.667 22.6241 41.6669 22.7705 41.5205C22.9169 41.3741 22.917 41.1382 22.917 40.667V38.5C22.917 38.0288 22.9168 37.7929 22.7705 37.6465C22.6241 37.5001 22.3882 37.5 21.917 37.5H15.583ZM28.083 37.5C27.6118 37.5 27.3759 37.5001 27.2295 37.6465C27.0832 37.7929 27.083 38.0288 27.083 38.5V40.667C27.083 41.1382 27.0831 41.3741 27.2295 41.5205C27.3759 41.6669 27.6118 41.667 28.083 41.667H34.417C34.8882 41.667 35.1241 41.6669 35.2705 41.5205C35.4169 41.3741 35.417 41.1382 35.417 40.667V38.5C35.417 38.0288 35.4168 37.7929 35.2705 37.6465C35.1241 37.5001 34.8882 37.5 34.417 37.5H28.083ZM15.583 29.167C15.1118 29.167 14.8759 29.1671 14.7295 29.3135C14.5834 29.4599 14.583 29.6959 14.583 30.167V32.333C14.583 32.8041 14.5834 33.0401 14.7295 33.1865C14.8759 33.3329 15.1118 33.333 15.583 33.333H21.917C22.3882 33.333 22.6241 33.3329 22.7705 33.1865C22.9166 33.0401 22.917 32.8041 22.917 32.333V30.167C22.917 29.6959 22.9166 29.4599 22.7705 29.3135C22.6241 29.1671 22.3882 29.167 21.917 29.167H15.583ZM28.083 29.167C27.6118 29.167 27.3759 29.1671 27.2295 29.3135C27.0834 29.4599 27.083 29.6959 27.083 30.167V32.333C27.083 32.8041 27.0834 33.0401 27.2295 33.1865C27.3759 33.3329 27.6118 33.333 28.083 33.333H34.417C34.8882 33.333 35.1241 33.3329 35.2705 33.1865C35.4166 33.0401 35.417 32.8041 35.417 32.333V30.167C35.417 29.6959 35.4166 29.4599 35.2705 29.3135C35.1241 29.1671 34.8882 29.167 34.417 29.167H28.083Z" fill="#C8868B"/>
<path d="M14.5835 6.25L14.5835 12.5" stroke="#C8868B" stroke-width="2" stroke-linecap="round"/>
<path d="M35.4165 6.25L35.4165 12.5" stroke="#C8868B" stroke-width="2" stroke-linecap="round"/>
</svg>
