<svg width="34" height="34" viewBox="0 0 34 34" fill="none" xmlns="http://www.w3.org/2000/svg">
<circle cx="17" cy="17" r="16" stroke="white" stroke-width="2"/>
<path d="M7.4375 15.437C7.4375 11.6658 7.4375 9.78016 8.60907 8.60858C9.78065 7.43701 11.6663 7.43701 15.4375 7.43701H18.5625C22.3337 7.43701 24.2194 7.43701 25.3909 8.60858C26.5625 9.78016 26.5625 11.6658 26.5625 15.437V18.562C26.5625 22.3332 26.5625 24.2189 25.3909 25.3904C24.2194 26.562 22.3337 26.562 18.5625 26.562H15.4375C11.6663 26.562 9.78065 26.562 8.60907 25.3904C7.4375 24.2189 7.4375 22.3332 7.4375 18.562V15.437Z" stroke="white" stroke-width="2"/>
<circle cx="21.7812" cy="12.2183" r="1.59375" fill="white"/>
<circle cx="17" cy="16.9995" r="3.25" stroke="white" stroke-width="2"/>
</svg>
