<svg width="50" height="50" viewBox="0 0 50 50" fill="none" xmlns="http://www.w3.org/2000/svg">
<path d="M30.417 8.33334C35.0839 8.33334 37.4176 8.33329 39.2002 9.24155C40.7681 10.0405 42.0429 11.3153 42.8418 12.8831C43.7501 14.6657 43.75 16.9995 43.75 21.6664V24.1664C43.75 28.8332 43.7499 31.167 42.8418 32.9496C42.0429 34.5176 40.7682 35.7932 39.2002 36.5921C37.4176 37.5004 35.0839 37.5003 30.417 37.5003H15.4463C14.8938 37.5003 14.3634 37.72 13.9727 38.1107L9.80664 42.2767C8.49429 43.5891 6.25026 42.6599 6.25 40.804V21.6664C6.25 16.9995 6.24994 14.6657 7.1582 12.8831C7.95712 11.3153 9.23194 10.0405 10.7998 9.24155C12.5824 8.33329 14.9161 8.33334 19.583 8.33334H30.417ZM18.75 25.0003C17.5995 25.0003 16.6672 25.9329 16.667 27.0833C16.6672 28.2338 17.5995 29.1673 18.75 29.1673H25C26.1505 29.1673 27.0828 28.2338 27.083 27.0833C27.0828 25.9329 26.1505 25.0003 25 25.0003H18.75ZM18.75 16.6673C17.5994 16.6673 16.667 17.5997 16.667 18.7503C16.6672 19.9008 17.5995 20.8333 18.75 20.8333H31.25C32.4005 20.8333 33.3328 19.9008 33.333 18.7503C33.333 17.5997 32.4006 16.6673 31.25 16.6673H18.75Z" fill="#C8868B"/>
</svg>
