<svg width="34" height="34" viewBox="0 0 34 34" fill="none" xmlns="http://www.w3.org/2000/svg">
<circle cx="17" cy="17" r="16" stroke="white" stroke-width="2"/>
<path d="M27.3747 10.5495C27.1284 9.37387 26.4046 8.45299 25.4961 8.1395C23.8331 7.57129 17.1963 7.57129 17.1963 7.57129C17.1963 7.57129 10.5441 7.57129 8.89647 8.1395C7.98796 8.45299 7.26422 9.37387 7.01785 10.5495C6.57129 12.6656 6.57129 17.0936 6.57129 17.0936C6.57129 17.0936 6.57129 21.5217 7.01785 23.6378C7.26422 24.8134 7.98796 25.7343 8.89647 26.0478C10.5595 26.616 17.1963 26.616 17.1963 26.616C17.1963 26.616 23.8485 26.616 25.4961 26.0478C26.4046 25.7343 27.1284 24.8134 27.3747 23.6378C27.8213 21.5217 27.8213 17.0936 27.8213 17.0936C27.8213 17.0936 27.8213 12.6656 27.3747 10.5495ZM15.0251 21.1103V13.077L20.584 17.0936L15.0251 21.1103Z" fill="white"/>
</svg>
