<svg width="201" height="51" viewBox="0 0 201 51" fill="none" xmlns="http://www.w3.org/2000/svg">
<path d="M20.5898 0.120117C31.9385 0.12016 41.1796 11.4055 41.1797 25.2656H37.2988C37.2987 14.0139 29.8028 4.85942 20.5898 4.85938C17.1706 4.85938 13.9878 6.12006 11.3369 8.28125L21.0508 20.1455L18.3066 23.4961L8.37012 11.3623C5.58638 15.0091 3.88092 19.8987 3.88086 25.2656C3.88086 36.5175 11.3767 45.6728 20.5967 45.6729V50.4121H20.5898C9.24104 50.4121 0 39.1345 0 25.2656C0.000136408 11.3969 9.24112 0.120117 20.5898 0.120117ZM45.6533 0.120117C57.009 0.120117 66.243 11.4055 66.2432 25.2656C66.2432 39.1259 57.0021 50.4121 45.6533 50.4121H45.6465C34.2907 50.4121 25.0566 39.1259 25.0566 25.2656H28.9375C28.9375 36.5175 36.4333 45.6728 45.6533 45.6729C54.8734 45.6729 62.3691 36.5175 62.3691 25.2656C62.369 14.0139 54.8733 4.85938 45.6533 4.85938V0.120117ZM184.39 27.96C184.39 30.8079 184.984 32.7642 186.038 33.9697C187.094 35.1768 188.602 35.8184 190.655 35.8184C192.712 35.8182 194.253 35.1745 195.307 33.9697C196.36 32.7642 196.955 30.8079 196.955 27.96V13.1865H200.7V28.0625C200.7 31.7229 199.848 34.6066 198.025 36.5986C196.208 38.5846 193.718 39.5433 190.662 39.5449V39.5459H190.655V39.5449C187.591 39.5436 185.103 38.5842 183.272 36.6006C181.434 34.6079 180.581 31.7228 180.581 28.0625V13.1865H184.39V27.96ZM174.945 31.0283C174.945 33.7271 174.372 35.8831 173.101 37.3584C171.815 38.8496 169.941 39.5447 167.602 39.5449C166.2 39.5449 164.89 39.2086 163.664 38.5391L163.662 38.5381C162.435 37.8634 161.443 36.9044 160.71 35.6641L160.465 35.249L162.779 32.3379L163.307 33.168C163.818 33.9732 164.384 34.5895 165 35.0283L165.267 35.2061L165.273 35.21C165.98 35.6559 166.764 35.8779 167.636 35.8779C168.884 35.8778 169.716 35.4849 170.26 34.7861C170.829 34.0541 171.173 32.8743 171.173 31.1309V16.8369H162.832V13.1777H174.945V31.0283ZM87.4102 30.7373L96.7998 13.1777H99.9082V39.332H96.1982V21.6094L88.3545 36.1865H86.3818L86.1826 35.8203L78.5439 21.7168V39.332H74.8262V13.1777H77.9336L87.4102 30.7373ZM137.701 13.1777C140.234 13.1779 142.493 13.7298 144.448 14.8467C146.397 15.96 147.912 17.5122 148.999 19.4805L149.001 19.4834C150.083 21.4665 150.615 23.7248 150.615 26.2549C150.615 28.7842 150.083 31.0515 149 33.0273C147.919 34.9983 146.396 36.5503 144.448 37.6631C142.493 38.78 140.234 39.3319 137.701 39.332H127.718V13.1777H137.701ZM158.433 39.332H154.624V13.1777H158.433V39.332ZM122.961 16.8369H109.735V24.251H121.53V27.876H109.735V35.665H123.45V39.3232H106.627V38.6318H105.927V13.1777H122.961V16.8369ZM168.4 38.8154C168.142 38.8357 167.876 38.8447 167.601 38.8447L167.602 38.8457C167.876 38.8457 168.143 38.8357 168.4 38.8154ZM190.655 38.8457H190.662C190.661 38.8457 190.659 38.8447 190.658 38.8447L190.655 38.8457ZM190.001 38.8262C190.215 38.8367 190.433 38.8436 190.654 38.8438H190.657C190.435 38.8437 190.216 38.8368 190.001 38.8262ZM190.657 38.8438C190.831 38.8437 191.003 38.8405 191.172 38.834C191.003 38.8405 190.831 38.8437 190.657 38.8438ZM166.685 38.79C166.822 38.8065 166.96 38.8192 167.1 38.8281C166.96 38.8192 166.822 38.8065 166.685 38.79ZM191.547 38.8125C191.584 38.81 191.621 38.8085 191.658 38.8057C191.621 38.8085 191.584 38.81 191.547 38.8125ZM166.248 38.7236C166.338 38.7399 166.429 38.7536 166.52 38.7666C166.429 38.7536 166.338 38.7399 166.248 38.7236ZM192.086 38.7637C192.103 38.7617 192.12 38.7599 192.138 38.7578C192.12 38.7599 192.103 38.7617 192.086 38.7637ZM192.471 38.7119C192.527 38.7035 192.583 38.6958 192.639 38.6865C192.583 38.6958 192.527 38.7035 192.471 38.7119ZM165.823 38.6338C165.906 38.654 165.99 38.6712 166.073 38.6885C165.99 38.6712 165.906 38.654 165.823 38.6338ZM192.908 38.6367C192.976 38.6236 193.043 38.6111 193.11 38.5967C193.043 38.6111 192.976 38.6236 192.908 38.6367ZM157.731 13.8779H157.732H157.731ZM138.152 38.626L138.542 38.6104C138.55 38.6099 138.558 38.6088 138.566 38.6084C138.429 38.6158 138.291 38.6221 138.152 38.626ZM138.74 38.5967C138.82 38.5915 138.899 38.5865 138.978 38.5801C138.899 38.5865 138.82 38.5915 138.74 38.5967ZM165.396 38.5146C165.473 38.5385 165.55 38.5617 165.628 38.583C165.55 38.5617 165.473 38.5385 165.396 38.5146ZM139.145 38.5645C139.227 38.5568 139.309 38.549 139.391 38.54C139.309 38.549 139.227 38.5568 139.145 38.5645ZM193.344 38.542C193.423 38.5229 193.502 38.5034 193.58 38.4824C193.502 38.5034 193.423 38.5228 193.344 38.542ZM139.566 38.5195C139.646 38.5097 139.726 38.4994 139.805 38.4883C139.726 38.4994 139.646 38.5097 139.566 38.5195ZM139.942 38.4688C140.045 38.4533 140.147 38.4357 140.249 38.418C140.147 38.4357 140.045 38.4532 139.942 38.4688ZM164.958 38.3643C165.046 38.3978 165.135 38.43 165.224 38.46C165.135 38.43 165.046 38.3978 164.958 38.3643ZM193.77 38.4287C193.856 38.4035 193.942 38.3781 194.027 38.3506C193.942 38.3782 193.856 38.4035 193.77 38.4287ZM140.34 38.4023C140.433 38.3855 140.525 38.3674 140.617 38.3486C140.525 38.3674 140.433 38.3855 140.34 38.4023ZM141.891 38.0195C141.518 38.1377 141.136 38.2392 140.744 38.3232C141.136 38.2393 141.518 38.1377 141.891 38.0195ZM164.549 38.1943C164.635 38.2328 164.72 38.2706 164.807 38.3057C164.72 38.2706 164.635 38.2328 164.549 38.1943ZM194.199 38.292C194.286 38.2619 194.372 38.2308 194.457 38.1982C194.372 38.2308 194.286 38.2619 194.199 38.292ZM194.635 38.1279C194.71 38.0972 194.784 38.0649 194.857 38.0322C194.784 38.0649 194.71 38.0972 194.635 38.1279ZM164.021 37.9355C164.144 38.0025 164.268 38.0654 164.394 38.125C164.268 38.0654 164.144 38.0025 164.021 37.9355ZM141.971 37.9932C142.052 37.9667 142.133 37.9393 142.214 37.9111C142.133 37.9393 142.052 37.9667 141.971 37.9932ZM195.036 37.9512C195.114 37.9144 195.19 37.8759 195.267 37.8369C195.19 37.876 195.114 37.9144 195.036 37.9512ZM142.388 37.8496C142.448 37.8274 142.508 37.8044 142.568 37.7812C142.508 37.8044 142.448 37.8274 142.388 37.8496ZM195.431 37.752C195.517 37.7053 195.602 37.657 195.686 37.6074C195.602 37.6571 195.517 37.7053 195.431 37.752ZM142.744 37.7119C142.811 37.6848 142.877 37.6562 142.943 37.6279C142.877 37.6562 142.811 37.6848 142.744 37.7119ZM185.224 37.3584C185.353 37.4452 185.485 37.5282 185.619 37.6074C185.485 37.5282 185.353 37.4452 185.224 37.3584ZM143.071 37.5732C143.147 37.5398 143.222 37.5048 143.297 37.4697C143.222 37.5048 143.147 37.5398 143.071 37.5732ZM195.796 37.542C195.894 37.4817 195.99 37.4181 196.086 37.3535C195.99 37.4181 195.894 37.4816 195.796 37.542ZM144.101 37.0547C143.88 37.1806 143.655 37.2983 143.426 37.4092C143.535 37.3561 143.645 37.3026 143.753 37.2461L144.102 37.0547C144.213 36.9908 144.323 36.9243 144.432 36.8574C144.323 36.9245 144.213 36.9907 144.101 37.0547ZM196.16 37.3047C196.248 37.2437 196.333 37.1789 196.419 37.1143C196.333 37.1789 196.248 37.2437 196.16 37.3047ZM197.508 36.126C197.202 36.4598 196.875 36.762 196.527 37.0342C196.757 36.8544 196.979 36.6628 197.19 36.4561C197.299 36.3498 197.405 36.2394 197.509 36.126C197.61 36.0155 197.707 35.9011 197.802 35.7842C197.707 35.9011 197.609 36.0155 197.508 36.126ZM172.599 36.8662C172.656 36.798 172.713 36.7281 172.768 36.6562C172.713 36.7281 172.656 36.798 172.599 36.8662ZM144.608 36.7461C144.655 36.7164 144.701 36.6866 144.747 36.6562C144.701 36.6866 144.655 36.7164 144.608 36.7461ZM144.885 36.5625C144.942 36.5233 145 36.4845 145.057 36.4443C145 36.4845 144.942 36.5233 144.885 36.5625ZM172.841 36.5547C172.877 36.5054 172.913 36.4562 172.947 36.4053C172.913 36.4562 172.877 36.5054 172.841 36.5547ZM189.622 36.4609C189.825 36.4833 190.033 36.5011 190.246 36.5098C190.033 36.5011 189.825 36.4832 189.622 36.4609ZM130.832 36.373H130.833V16.1543H130.832V36.373ZM145.218 36.3281C145.265 36.2938 145.311 36.2596 145.357 36.2246C145.311 36.2596 145.265 36.2938 145.218 36.3281ZM173.042 36.2588C173.068 36.2172 173.095 36.1755 173.12 36.1328C173.095 36.1755 173.068 36.2172 173.042 36.2588ZM145.513 36.1025C145.56 36.0655 145.607 36.0289 145.653 35.9912C145.607 36.0289 145.56 36.0655 145.513 36.1025ZM173.223 35.9521C173.24 35.9198 173.258 35.8874 173.275 35.8545C173.258 35.8874 173.24 35.9198 173.223 35.9521ZM145.772 35.8916C145.835 35.839 145.898 35.7863 145.959 35.7324C145.898 35.7863 145.835 35.839 145.772 35.8916ZM162.715 33.543C163.343 34.5317 164.069 35.2903 164.899 35.8018H164.9C164.07 35.2904 163.344 34.5316 162.716 33.543H162.715ZM173.36 35.6846C173.385 35.6351 173.409 35.5858 173.433 35.5352C173.409 35.5858 173.384 35.6351 173.36 35.6846ZM131.533 35.6729H137.575C139.492 35.6728 141.126 35.2689 142.487 34.4805C143.861 33.6845 144.929 32.5852 145.691 31.1807C146.451 29.7805 146.842 28.1422 146.842 26.2637C146.842 24.3831 146.451 22.7204 145.692 21.3311C144.931 19.9356 143.863 18.8438 142.487 18.0469C141.126 17.2584 139.499 16.8536 137.575 16.8535H131.533V35.6729ZM146.073 35.6309C146.126 35.5831 146.179 35.535 146.23 35.4863C146.179 35.535 146.126 35.5831 146.073 35.6309ZM183.217 35.4287C183.259 35.4863 183.303 35.5414 183.347 35.5977C183.303 35.5414 183.259 35.4863 183.217 35.4287ZM197.975 35.5586C198.005 35.5184 198.037 35.4794 198.066 35.4385C198.037 35.4794 198.005 35.5184 197.975 35.5586ZM96.8975 18.832L87.9365 35.4863L96.8975 18.833V18.832ZM173.504 35.3721C173.527 35.3173 173.551 35.2622 173.573 35.2061C173.551 35.2622 173.527 35.3172 173.504 35.3721ZM146.352 35.3711C146.39 35.3338 146.428 35.2957 146.466 35.2578C146.428 35.2957 146.39 35.3338 146.352 35.3711ZM182.954 35.043C183.001 35.1161 183.051 35.1867 183.1 35.2578C183.051 35.1867 183.001 35.1161 182.954 35.043ZM198.222 35.2109C198.256 35.1593 198.292 35.1084 198.326 35.0557C198.292 35.1084 198.256 35.1593 198.222 35.2109ZM146.636 35.0859C146.665 35.0557 146.693 35.0247 146.722 34.9941C146.693 35.0247 146.665 35.0557 146.636 35.0859ZM173.635 35.043C173.654 34.9918 173.671 34.9399 173.689 34.8877C173.671 34.9399 173.654 34.9918 173.635 35.043ZM146.868 34.8359C146.902 34.7982 146.935 34.7599 146.969 34.7217C146.935 34.7599 146.902 34.7982 146.868 34.8359ZM182.72 34.6523C182.755 34.7144 182.792 34.7752 182.828 34.8359C182.792 34.7752 182.755 34.7144 182.72 34.6523ZM198.46 34.834C198.494 34.7772 198.529 34.721 198.562 34.6631C198.529 34.721 198.494 34.7772 198.46 34.834ZM173.737 34.7461C173.761 34.6715 173.785 34.5961 173.808 34.5195C173.785 34.5961 173.761 34.6715 173.737 34.7461ZM147.124 34.542C147.156 34.5036 147.188 34.4647 147.22 34.4258C147.188 34.4647 147.156 34.5036 147.124 34.542ZM182.496 34.2324C182.534 34.3091 182.574 34.3842 182.614 34.459C182.574 34.3842 182.534 34.3091 182.496 34.2324ZM198.688 34.4297C198.722 34.3638 198.757 34.2978 198.79 34.2305C198.757 34.2978 198.722 34.3638 198.688 34.4297ZM173.843 34.3936C173.865 34.3138 173.887 34.2333 173.907 34.1514C173.887 34.2333 173.865 34.3138 173.843 34.3936ZM147.345 34.2695C147.391 34.2108 147.436 34.1516 147.481 34.0918C147.436 34.1516 147.391 34.2108 147.345 34.2695ZM198.882 34.0361C198.919 33.9554 198.956 33.8737 198.991 33.791C198.956 33.8737 198.919 33.9554 198.882 34.0361ZM173.94 34.0098C173.957 33.9395 173.972 33.8686 173.987 33.7969C173.972 33.8686 173.957 33.9395 173.94 34.0098ZM182.29 33.7871C182.323 33.8623 182.357 33.9362 182.391 34.0098C182.357 33.9362 182.323 33.8623 182.29 33.7871ZM147.567 33.9775C147.619 33.9078 147.668 33.8368 147.718 33.7656C147.668 33.8368 147.619 33.9078 147.567 33.9775ZM174.022 33.6182C174.033 33.5639 174.042 33.5092 174.052 33.4541C174.042 33.5092 174.033 33.5639 174.022 33.6182ZM199.066 33.6113C199.104 33.5202 199.141 33.4284 199.176 33.335C199.141 33.4285 199.104 33.5202 199.066 33.6113ZM182.113 33.3506C182.144 33.4333 182.177 33.5148 182.21 33.5957C182.177 33.5148 182.144 33.4333 182.113 33.3506ZM196.943 32.542C196.848 32.7878 196.744 33.0214 196.63 33.2432C196.744 33.0217 196.849 32.7884 196.943 32.543V32.542ZM174.09 33.2275C174.102 33.1467 174.114 33.065 174.125 32.9824C174.114 33.065 174.102 33.1467 174.09 33.2275ZM199.258 33.1055C199.288 33.0185 199.317 32.9307 199.346 32.8418C199.317 32.9307 199.288 33.0185 199.258 33.1055ZM181.951 32.8857C181.972 32.9494 181.993 33.0125 182.015 33.0752C181.993 33.0125 181.972 32.9494 181.951 32.8857ZM148.386 32.6904H148.387H148.386ZM174.144 32.832C174.157 32.719 174.17 32.6045 174.181 32.4883C174.17 32.6045 174.157 32.719 174.144 32.832ZM171.747 32.8281C171.755 32.7768 171.764 32.7252 171.771 32.6729C171.764 32.7252 171.755 32.7768 171.747 32.8281ZM145.551 32.6904C145.585 32.6455 145.618 32.6004 145.651 32.5547C145.618 32.6004 145.585 32.6455 145.551 32.6904ZM181.799 32.376C181.822 32.462 181.846 32.5475 181.871 32.6318C181.846 32.5475 181.822 32.462 181.799 32.376ZM199.41 32.6318C199.435 32.5474 199.46 32.4622 199.483 32.376C199.46 32.4622 199.435 32.5474 199.41 32.6318ZM171.792 32.5107C171.797 32.469 171.803 32.4271 171.808 32.3848C171.803 32.4271 171.797 32.469 171.792 32.5107ZM174.188 32.4072C174.199 32.2717 174.209 32.134 174.217 31.9941C174.209 32.134 174.199 32.2717 174.188 32.4072ZM171.855 31.7803C171.847 31.9547 171.833 32.1242 171.816 32.2891C171.832 32.1272 171.847 31.961 171.855 31.79V31.7803ZM181.667 31.8467C181.689 31.9436 181.71 32.0398 181.734 32.1348C181.71 32.0398 181.689 31.9436 181.667 31.8467ZM199.555 32.1045C199.58 32.0009 199.604 31.896 199.628 31.79C199.604 31.896 199.58 32.0009 199.555 32.1045ZM174.245 31.0283C174.245 31.3504 174.236 31.6627 174.219 31.9648C174.227 31.8162 174.235 31.6652 174.239 31.5117L174.246 31.0283V13.8779H174.245V31.0283ZM199.662 31.6318C199.689 31.5046 199.714 31.3757 199.737 31.2451C199.714 31.3757 199.689 31.5046 199.662 31.6318ZM181.564 31.3545C181.579 31.4339 181.594 31.5127 181.61 31.5908C181.594 31.5127 181.579 31.4339 181.564 31.3545ZM146.521 31.0908C146.457 31.226 146.389 31.3596 146.318 31.4912C146.389 31.3596 146.457 31.226 146.521 31.0908ZM199.766 31.0908C199.788 30.9568 199.808 30.821 199.827 30.6836C199.808 30.821 199.788 30.9568 199.766 31.0908ZM181.47 30.7861C181.483 30.8783 181.496 30.97 181.511 31.0605C181.496 30.97 181.483 30.8783 181.47 30.7861ZM199.849 30.5293C199.869 30.3714 199.887 30.2112 199.903 30.0488C199.887 30.2112 199.869 30.3714 199.849 30.5293ZM181.401 30.2637C181.41 30.3406 181.418 30.4172 181.428 30.4932C181.418 30.4172 181.41 30.3406 181.401 30.2637ZM199.913 29.959C199.931 29.7706 199.946 29.5791 199.958 29.3848C199.946 29.5791 199.931 29.7706 199.913 29.959ZM200 28.0615C200 28.5022 199.986 28.9299 199.961 29.3438C199.974 29.139 199.985 28.9311 199.991 28.7197C199.998 28.5041 200 28.285 200 28.0625V28.0615ZM183.717 29.0205C183.72 29.0828 183.726 29.1446 183.73 29.2061C183.726 29.1337 183.72 29.0608 183.716 28.9873L183.717 29.0205ZM183.688 27.96H183.689V13.8867H183.688V27.96ZM149.91 25.9141C149.909 25.8782 149.909 25.8424 149.908 25.8066C149.909 25.8424 149.909 25.8782 149.91 25.9141ZM149.905 25.7393C149.902 25.6197 149.898 25.5009 149.892 25.3828C149.898 25.5009 149.902 25.6197 149.905 25.7393ZM149.793 24.2852C149.786 24.232 149.781 24.1788 149.773 24.126C149.781 24.1788 149.786 24.232 149.793 24.2852ZM149.742 23.9199C149.731 23.8493 149.721 23.779 149.709 23.709C149.721 23.779 149.731 23.8493 149.742 23.9199ZM149.677 23.5234C149.664 23.4509 149.65 23.3786 149.636 23.3066C149.65 23.3786 149.664 23.4509 149.677 23.5234ZM149.591 23.0908C149.581 23.0441 149.57 22.9976 149.56 22.9512C149.57 22.9976 149.581 23.0441 149.591 23.0908ZM149.509 22.7334C149.492 22.6663 149.475 22.5997 149.457 22.5332C149.475 22.5997 149.492 22.6663 149.509 22.7334ZM149.409 22.3564C149.389 22.2842 149.369 22.2122 149.348 22.1406C149.369 22.2122 149.389 22.2842 149.409 22.3564ZM149.294 21.9648C149.279 21.9178 149.264 21.8709 149.249 21.8242C149.264 21.8709 149.279 21.9178 149.294 21.9648ZM146.456 21.2822V21.2812V21.2822ZM148.894 20.8721C148.859 20.7901 148.823 20.7089 148.786 20.6279C148.823 20.7089 148.859 20.7901 148.894 20.8721ZM145.808 20.1807C145.452 19.6607 145.049 19.1868 144.6 18.7578C144.749 18.9008 144.894 19.049 145.033 19.2021C145.173 19.3554 145.307 19.5134 145.437 19.6768C145.565 19.8398 145.689 20.0076 145.808 20.1807ZM148.386 19.8193C148.405 19.8542 148.423 19.8898 148.441 19.9248L148.387 19.8193C148.325 19.7071 148.26 19.5966 148.195 19.4873C148.26 19.5966 148.324 19.7071 148.386 19.8193ZM148.058 19.2627C148.035 19.2268 148.013 19.1909 147.99 19.1553C148.013 19.1909 148.035 19.2268 148.058 19.2627ZM147.934 19.0684C147.882 18.989 147.831 18.9097 147.777 18.832C147.831 18.9097 147.882 18.989 147.934 19.0684ZM147.684 18.7002C147.647 18.6486 147.611 18.5967 147.574 18.5459C147.611 18.5967 147.647 18.6486 147.684 18.7002ZM147.462 18.3965C147.423 18.3455 147.385 18.2943 147.346 18.2441C147.385 18.2943 147.423 18.3455 147.462 18.3965ZM147.216 18.083C147.181 18.0398 147.145 17.9967 147.109 17.9541C147.145 17.9967 147.181 18.0398 147.216 18.083ZM147.004 17.8311C146.949 17.7679 146.894 17.7054 146.838 17.6436C146.894 17.7054 146.949 17.7679 147.004 17.8311ZM146.77 17.5693C146.715 17.5101 146.66 17.4515 146.604 17.3936C146.66 17.4515 146.715 17.5101 146.77 17.5693ZM146.485 17.2725C146.437 17.2239 146.388 17.1756 146.339 17.1279C146.388 17.1756 146.437 17.2239 146.485 17.2725ZM146.234 17.0283C146.178 16.9756 146.122 16.9236 146.064 16.8721C146.122 16.9236 146.178 16.9756 146.234 17.0283ZM145.939 16.7607C145.893 16.7202 145.846 16.6804 145.799 16.6406C145.846 16.6804 145.893 16.7202 145.939 16.7607ZM145.66 16.5244C145.622 16.4929 145.582 16.4627 145.543 16.4316C145.582 16.4627 145.622 16.4929 145.66 16.5244ZM139.737 16.335V16.334V16.335ZM145.349 16.2793C145.293 16.237 145.236 16.1957 145.18 16.1543C145.236 16.1957 145.293 16.237 145.349 16.2793ZM145.08 16.0811C144.997 16.0215 144.912 15.9638 144.826 15.9062C144.912 15.9638 144.997 16.0215 145.08 16.0811ZM144.101 15.4551C144.215 15.5207 144.329 15.5875 144.44 15.6562L144.102 15.4551C143.989 15.3908 143.875 15.3289 143.76 15.2686C143.874 15.3289 143.988 15.3909 144.101 15.4551ZM143.69 15.2334C143.598 15.1858 143.507 15.1379 143.413 15.0928C143.507 15.1379 143.598 15.1858 143.69 15.2334ZM143.316 15.0479C143.231 15.0078 143.146 14.9687 143.06 14.9307C143.146 14.9687 143.231 15.0078 143.316 15.0479ZM142.94 14.8799C142.863 14.847 142.786 14.8145 142.708 14.7832C142.786 14.8145 142.863 14.847 142.94 14.8799ZM142.555 14.7236C142.484 14.6963 142.413 14.6695 142.341 14.6436C142.413 14.6695 142.484 14.6963 142.555 14.7236ZM142.206 14.5957C142.125 14.5676 142.045 14.5392 141.963 14.5127C142.045 14.5392 142.125 14.5676 142.206 14.5957ZM141.82 14.4678C141.747 14.4448 141.672 14.423 141.598 14.4014C141.672 14.423 141.747 14.4449 141.82 14.4678ZM141.424 14.3525C141.354 14.3336 141.285 14.3147 141.215 14.2969C141.285 14.3147 141.354 14.3336 141.424 14.3525ZM141.036 14.2529C140.971 14.2374 140.906 14.2226 140.841 14.208C140.906 14.2225 140.971 14.2374 141.036 14.2529ZM140.633 14.1631C140.556 14.1473 140.478 14.1327 140.4 14.1182C140.478 14.1327 140.556 14.1473 140.633 14.1631ZM140.273 14.0947C140.185 14.0792 140.097 14.0646 140.008 14.0508C140.097 14.0646 140.185 14.0792 140.273 14.0947ZM139.819 14.0225C139.769 14.0154 139.719 14.0095 139.669 14.0029C139.719 14.0095 139.769 14.0154 139.819 14.0225ZM139.418 13.9717C139.328 13.9615 139.237 13.9528 139.146 13.9443C139.237 13.9528 139.328 13.9616 139.418 13.9717ZM137.7 13.8779C138.15 13.8779 138.59 13.8954 139.02 13.9316C138.735 13.9076 138.446 13.8919 138.152 13.8838C138.003 13.8797 137.853 13.8779 137.701 13.8779H137.7ZM41.2559 0C42.3814 0 43.2939 1.11459 43.2939 2.48926C43.2939 3.86383 42.3814 4.97852 41.2559 4.97852C40.1305 4.97822 39.2188 3.86365 39.2188 2.48926C39.2188 1.11477 40.1305 0.000292182 41.2559 0Z" fill="white"/>
</svg>
