<svg width="219" height="45" viewBox="0 0 219 45" fill="none" xmlns="http://www.w3.org/2000/svg">
<path d="M22.4473 0.106445C34.8272 0.106604 44.9012 10.1735 44.8936 22.5459H40.6631C40.6631 12.5019 32.4912 4.32926 22.4473 4.3291C18.7188 4.3291 15.2489 5.45595 12.3574 7.38867L22.9492 17.9805L19.959 20.9707H19.9512L9.12305 10.1426C6.087 13.3993 4.22266 17.76 4.22266 22.5537C4.2228 32.5977 12.4033 40.7695 22.4473 40.7695V45C10.0749 45 0.000144942 34.9337 0 22.5537C0 10.1736 10.0672 0.106445 22.4473 0.106445ZM49.7637 0.106445C62.1437 0.106445 72.2031 10.1812 72.2031 22.5537C72.203 34.9259 62.1291 44.9998 49.7568 45C37.3845 45 27.3097 34.9337 27.3096 22.5537H31.54C31.5402 32.5975 39.7123 40.7693 49.7637 40.7695C59.8153 40.7695 67.9881 32.5977 67.9883 22.5537C67.9883 12.5096 59.8077 4.33691 49.7637 4.33691V0.106445ZM190.562 27.7051C190.561 30.1394 189.926 32.0748 188.548 33.3838L188.547 33.3848C187.171 34.6835 185.194 35.2842 182.716 35.2842C181.235 35.2841 179.842 34.9936 178.543 34.4092C177.239 33.8223 176.17 32.9823 175.372 31.877L175.077 31.4678L175.429 31.1055L176.958 29.5303L177.438 29.0361L177.863 29.5781C178.508 30.4002 179.235 31.0112 180.048 31.4316C180.852 31.8474 181.753 32.0565 182.754 32.0566C184.194 32.0566 185.165 31.68 185.783 31.0293C186.407 30.3725 186.771 29.3322 186.771 27.7969V15.0137H177.679V11.7939H190.562V27.7051ZM200.866 24.9502C200.866 27.4678 201.505 29.2028 202.662 30.2871C203.843 31.3929 205.527 31.9882 207.858 31.9883C210.193 31.9882 211.915 31.3915 213.094 30.2871C214.251 29.2028 214.889 27.4676 214.889 24.9502V11.7861H218.656V25.042C218.656 28.3378 217.714 30.9212 215.739 32.6885C213.788 34.4349 211.14 35.2685 207.866 35.2686C204.592 35.2685 201.938 34.4343 199.972 32.6895H199.971C197.988 30.9227 197.038 28.3394 197.038 25.042V11.7861H200.866V24.9502ZM85.0088 12.0566L95.2939 27.665L105.483 12.0586L105.661 11.7861H108.75V35.0859H105.028V18.8262L96.3701 32.0068L96.1914 32.2783H94.3037L94.125 32.0088L85.458 18.9141V35.0859H81.7363V11.7861H84.8301L85.0088 12.0566ZM133.89 15.0137H119.478V21.6699H132.329V24.8594H119.478V31.8662H134.422V35.0859H115.642V11.7861H133.89V15.0137ZM150.122 11.7861C152.841 11.7862 155.26 12.2704 157.354 13.25C159.444 14.2273 161.093 15.5973 162.271 17.3564L162.272 17.3574C163.454 19.1305 164.04 21.159 164.04 23.4365C164.04 25.7131 163.454 27.7492 162.271 29.5156L162.271 29.5176C161.086 31.2745 159.445 32.6443 157.354 33.6221C155.26 34.6017 152.841 35.0859 150.122 35.0859H139.4V11.7861H150.122ZM172.56 35.0859H168.731V11.7861H172.56V35.0859ZM188.134 32.9473C187.983 33.0896 187.823 33.2228 187.654 33.3477C187.737 33.2862 187.819 33.2239 187.897 33.1582C187.979 33.0905 188.057 33.0205 188.134 32.9482V32.9473ZM215.338 32.2402C215.114 32.4408 214.879 32.6281 214.634 32.8037C214.755 32.7167 214.875 32.6273 214.991 32.5342L215.339 32.2402C215.45 32.1404 215.557 32.0364 215.662 31.9307C215.557 32.0365 215.45 32.1403 215.338 32.2402ZM143.229 31.8594H149.978C152.116 31.8593 153.934 31.4899 155.457 30.7676C156.929 30.0695 158.07 29.1218 158.895 27.9365V27.9346L158.995 27.7832C159.822 26.5357 160.242 25.1088 160.242 23.4287C160.242 21.7465 159.821 20.2973 158.996 19.0596C158.165 17.8136 156.991 16.824 155.457 16.0967C153.934 15.3745 152.108 15.0059 149.978 15.0059H143.229V31.8594ZM95.8662 31.6768H95.8672L105.629 16.8174V16.8164L95.8662 31.6768ZM187.368 28.0957C187.362 28.3121 187.347 28.5207 187.325 28.7217C187.347 28.5207 187.363 28.3122 187.369 28.0957H187.368ZM160.812 24.2129C160.815 24.1713 160.82 24.1297 160.822 24.0879L160.823 24.0674C160.82 24.1161 160.815 24.1645 160.812 24.2129ZM163.438 23.4365C163.437 23.5452 163.435 23.6533 163.433 23.7607L163.438 23.4365C163.438 23.304 163.436 23.1725 163.432 23.042C163.436 23.1725 163.438 23.3041 163.438 23.4365ZM160.316 20.335C160.352 20.4295 160.385 20.5248 160.417 20.6211C160.448 20.7169 160.478 20.8136 160.506 20.9111C160.45 20.7153 160.387 20.5229 160.316 20.334V20.335ZM159.812 19.2422C159.861 19.3298 159.908 19.4185 159.953 19.5078C159.999 19.5972 160.043 19.6872 160.085 19.7783C160.127 19.8693 160.168 19.961 160.206 20.0537L160.085 19.7773C159.959 19.5043 159.817 19.239 159.659 18.9814L159.812 19.2422ZM158.179 14.3604L157.829 14.1631C157.782 14.1374 157.733 14.1132 157.686 14.0879C157.853 14.1762 158.018 14.2664 158.179 14.3604ZM157.1 13.7959C157.275 13.878 157.447 13.9631 157.616 14.0508C157.568 14.0254 157.519 13.9995 157.47 13.9746C157.348 13.9133 157.225 13.8534 157.1 13.7949V13.7959ZM44.9775 0C46.2044 0.000178817 47.1991 0.994773 47.1992 2.22168C47.1992 3.44867 46.2045 4.44318 44.9775 4.44336C43.7504 4.44336 42.7549 3.44878 42.7549 2.22168C42.755 0.994662 43.7505 0 44.9775 0Z" fill="white"/>
</svg>
