<svg width="201" height="52" viewBox="0 0 201 52" fill="none" xmlns="http://www.w3.org/2000/svg">
<path d="M75.5264 39.8376V14.3112H77.5155L87.9361 34.2207H86.8961L97.2189 14.3112H99.2081V39.8376H96.8979V18.3634H97.4492L87.9361 36.5941H86.7984L77.2224 18.3634H77.8436V39.8376H75.5333H75.5264Z" fill="#E1B8A8"/>
<path d="M99.208 14.3112H97.2188L87.4131 33.2213L77.5156 14.3112H75.5264V39.8375H77.8438V19.5446L86.7988 36.5944H87.9365L96.8975 19.4196V39.8375H99.208V14.3112ZM99.9082 40.5377H96.1982V22.274L88.3604 37.2936H86.375L78.5439 22.3844V40.5377H74.8262V13.611H77.9395L78.1357 13.9869L87.4102 31.7067L96.5977 13.9889L96.793 13.611H99.9082V40.5377Z" fill="#E1B8A8"/>
<path d="M106.627 39.8375V14.311H122.262V16.6404H109.035V37.4993H122.75V39.8287H106.627V39.8375ZM108.777 28.0236V25.7294H120.831V28.0236H108.777Z" fill="#E1B8A8"/>
<path d="M122.75 39.8286V37.4995H109.036V28.0239H120.831V25.729H109.036V16.6401H122.261V14.311H106.627V39.8374H105.927V13.6108H122.961V17.3403H109.736V25.0298H121.531V28.7231H109.736V36.7993H123.451V40.5288H106.627V39.8286H122.75Z" fill="#E1B8A8"/>
<path d="M128.417 39.8375V14.311H137.7C140.129 14.311 142.265 14.856 144.101 15.9372C145.936 17.0184 147.36 18.5215 148.386 20.4377C149.405 22.3628 149.915 24.5691 149.915 27.0743C149.915 29.5794 149.405 31.7945 148.386 33.7108C147.367 35.627 145.936 37.1301 144.101 38.2113C142.265 39.2925 140.129 39.8375 137.7 39.8375H128.417ZM130.832 37.5081H137.575C139.592 37.5081 141.351 37.0686 142.837 36.1808C144.324 35.293 145.483 34.0624 146.306 32.4978C147.13 30.9331 147.542 29.1224 147.542 27.0831C147.542 25.0437 147.13 23.2066 146.306 21.6508C145.483 20.0949 144.324 18.8731 142.837 17.9853C141.351 17.0975 139.599 16.658 137.575 16.658H130.832V37.5169V37.5081Z" fill="#E1B8A8"/>
<path d="M149.915 27.0747C149.915 24.7261 149.466 22.64 148.571 20.8022L148.386 20.438C147.424 18.6415 146.113 17.208 144.44 16.145L144.101 15.937C142.38 14.9233 140.395 14.3816 138.152 14.3179L137.701 14.311V13.6108C140.237 13.6109 142.499 14.1818 144.456 15.3345C146.284 16.4114 147.728 17.8841 148.794 19.7329L149.003 20.1069L149.004 20.1099C150.084 22.1497 150.615 24.4722 150.615 27.0747C150.615 29.6763 150.085 32.0074 149.004 34.0396C147.926 36.0674 146.405 37.6669 144.456 38.8149C142.499 39.9674 140.237 40.5375 137.701 40.5376H127.717V13.6108H137.701V14.311H128.417V39.8374H137.701L138.152 39.8315C140.245 39.772 142.113 39.295 143.752 38.4077L144.101 38.2114C145.822 37.1978 147.186 35.8129 148.19 34.0649L148.386 33.7104C149.341 31.914 149.849 29.855 149.909 27.5405L149.915 27.0747ZM146.841 27.0835C146.841 25.1377 146.448 23.4162 145.687 21.978C144.923 20.5342 143.853 19.4077 142.478 18.5864C141.118 17.7742 139.495 17.3579 137.575 17.3579H131.533V36.8081H137.575V37.5083H130.833V16.6577H137.575C139.599 16.6577 141.351 17.0971 142.837 17.9849C144.324 18.8727 145.483 20.095 146.306 21.6509C147.13 23.2067 147.542 25.0442 147.542 27.0835L147.537 27.4624C147.488 29.3475 147.078 31.0307 146.306 32.4976L146.148 32.7876C145.337 34.2152 144.231 35.3489 142.837 36.1812L142.555 36.3423C141.225 37.07 139.686 37.4553 137.95 37.5034L137.575 37.5083V36.8081C139.488 36.8081 141.118 36.3917 142.478 35.5796C143.852 34.7593 144.922 33.6248 145.687 32.1714C146.45 30.7223 146.841 29.0269 146.841 27.0835Z" fill="#E1B8A8"/>
<path d="M155.324 39.8375V14.311H157.732V39.8375H155.324Z" fill="#E1B8A8"/>
<path d="M157.732 14.311H155.324V39.8374H157.732V14.311ZM158.433 40.5376H154.624V13.6108H158.433V40.5376Z" fill="#E1B8A8"/>
<path d="M167.601 40.0572C166.317 40.0572 165.123 39.7408 164 39.1079C162.883 38.475 161.983 37.5784 161.312 36.4093L162.715 34.5898C163.344 35.6094 164.069 36.3918 164.9 36.9192C165.724 37.4554 166.638 37.7191 167.636 37.7191C170.456 37.7191 171.873 35.8468 171.873 32.1022V16.6404H163.532V14.311H174.246V31.9967C174.246 34.6953 173.687 36.717 172.571 38.0531C171.454 39.3892 169.8 40.0572 167.601 40.0572Z" fill="#E1B8A8"/>
<path d="M174.246 31.9966V14.311H163.532V16.6401H171.873V32.1021L171.868 32.4478C171.782 35.962 170.367 37.7192 167.636 37.7192V37.019C168.876 37.019 169.706 36.6176 170.253 35.8931C170.828 35.1316 171.173 33.906 171.173 32.1021V17.3403H162.832V13.6108H174.945V31.9966C174.945 34.7731 174.374 36.9872 173.107 38.5024C171.824 40.0374 169.948 40.7572 167.602 40.7573C166.196 40.7573 164.883 40.4093 163.656 39.7183L163.654 39.7173C162.425 39.0209 161.436 38.0324 160.705 36.7573L160.473 36.3521L162.78 33.3599L163.312 34.2222C163.825 35.0552 164.391 35.6923 165.008 36.145L165.275 36.3286L165.282 36.3325L165.55 36.4937C166.184 36.8451 166.877 37.019 167.636 37.019V37.7192L167.266 37.7065C166.411 37.6487 165.621 37.3884 164.9 36.9194C164.07 36.392 163.344 35.609 162.716 34.5894L161.312 36.4097C161.983 37.5786 162.883 38.4751 164 39.1079C164.983 39.6616 166.02 39.9733 167.124 40.0425L167.602 40.0571C169.663 40.057 171.245 39.4696 172.354 38.2954L172.57 38.0532C173.617 36.8006 174.174 34.9453 174.239 32.4946L174.246 31.9966Z" fill="#E1B8A8"/>
<path d="M190.662 40.0566C187.751 40.0566 185.462 39.1249 183.787 37.2526C182.112 35.3803 181.281 32.6114 181.281 28.9371V14.3192H183.689V28.8317C183.689 31.8467 184.296 34.0706 185.511 35.5034C186.725 36.9361 188.442 37.6569 190.655 37.6569C192.867 37.6569 194.619 36.9361 195.834 35.5034C197.048 34.0706 197.655 31.8467 197.655 28.8317V14.3192H200V28.9371C200 32.6114 199.17 35.3803 197.509 37.2526C195.848 39.1249 193.558 40.0566 190.655 40.0566H190.662Z" fill="#E1B8A8"/>
<path d="M190.655 40.0565H190.662C190.661 40.0565 190.659 40.0555 190.658 40.0555L190.655 40.0565ZM183.689 28.8319V14.3192H181.281V28.9374L181.291 29.6151C181.388 32.9538 182.217 35.4975 183.787 37.2528C185.461 39.1242 187.75 40.0548 190.658 40.0555C193.379 40.0549 195.56 39.2372 197.19 37.5927L197.509 37.2528C199.066 35.4975 199.894 32.9538 199.991 29.6151L200 28.9374V14.3192H197.655V28.8319L197.648 29.3876C197.577 32.1215 196.973 34.1605 195.834 35.5038L195.6 35.7635C194.398 37.0232 192.729 37.657 190.655 37.6571V36.9569C192.706 36.9568 194.244 36.2959 195.3 35.0507C196.359 33.8013 196.955 31.7751 196.955 28.8319V13.619H200.7V28.9374C200.7 32.7044 199.85 35.6679 198.032 37.7167C196.217 39.7626 193.726 40.7542 190.662 40.7557V40.7567H190.655V40.7557C187.584 40.7543 185.094 39.7631 183.266 37.7196C181.432 35.6701 180.581 32.7044 180.581 28.9374V13.619H184.39V28.8319C184.39 31.7752 184.986 33.8013 186.045 35.0507C187.103 36.2986 188.609 36.9569 190.655 36.9569V37.6571L190.246 37.6483C188.364 37.5696 186.862 36.9395 185.744 35.7635L185.511 35.5038C184.372 34.1605 183.767 32.1215 183.696 29.3876L183.689 28.8319Z" fill="#E1B8A8"/>
<path d="M20.5898 51.9849C9.24097 51.9849 0 40.3556 0 26.0541C0 11.7526 9.24097 0.123291 20.5898 0.123291C31.9386 0.123291 41.1796 11.7614 41.1796 26.0541H37.2989C37.2989 14.4512 29.8028 5.01059 20.5898 5.01059C11.3767 5.01059 3.88065 14.4512 3.88065 26.0541C3.88065 37.657 11.3767 47.0976 20.5968 47.0976V51.9849H20.5898Z" fill="#E1B8A8"/>
<path d="M3.18262 26.054C3.18268 14.2243 10.8498 4.31274 20.5898 4.31274C30.1376 4.31279 37.6927 13.8369 37.9873 25.3557H40.4736C40.1794 11.6204 31.2319 0.821577 20.5898 0.821533C9.76794 0.821533 0.6983 11.9795 0.698242 26.054C0.698242 39.8277 9.38438 50.8057 19.8984 51.2688V47.7766C10.4862 47.3166 3.18262 37.5998 3.18262 26.054ZM3.88574 26.5959C4.11477 37.9495 11.5206 47.0978 20.5967 47.0979V51.9846H20.5898L20.0596 51.9768C8.95455 51.6214 0 40.1321 0 26.054C5.81943e-05 11.7525 9.24107 0.123291 20.5898 0.123291L21.1201 0.13208C32.225 0.487891 41.1796 11.9846 41.1797 26.054H37.2988C37.2988 14.6324 30.0353 5.30658 21.0205 5.01782L20.5898 5.01099C11.3768 5.01099 3.88092 14.4511 3.88086 26.054L3.88574 26.5959Z" fill="#E1B8A8"/>
<path d="M45.6464 51.9849C34.2906 51.9849 25.0566 40.3468 25.0566 26.0541H28.9373C28.9373 37.657 36.4334 47.0976 45.6534 47.0976C54.8734 47.0976 62.3695 37.657 62.3695 26.0541C62.3695 14.4512 54.8734 5.01059 45.6534 5.01059V0.123291C57.0092 0.123291 66.2432 11.7614 66.2432 26.0541C66.2432 40.3468 57.0022 51.9849 45.6534 51.9849H45.6464Z" fill="#E1B8A8"/>
<path d="M45.6533 51.2874V51.9846H45.6465V51.2874H45.6533ZM65.5449 26.054C65.5449 12.2913 56.8688 1.30574 46.3516 0.838135V4.33032C55.7639 4.79022 63.0673 14.5081 63.0674 26.054C63.0674 37.8839 55.4002 47.7952 45.6533 47.7952C36.0989 47.7951 28.5436 38.2713 28.249 26.7522H25.7617C26.0557 40.4879 34.9976 51.2874 45.6465 51.2874V51.9846L45.1152 51.9768C34.0041 51.6207 25.0566 40.1231 25.0566 26.054H28.9375C28.9375 37.4757 36.201 46.8025 45.2227 47.0911L45.6533 47.0979C54.8734 47.0979 62.3691 37.6569 62.3691 26.054C62.3691 14.4511 54.8733 5.01099 45.6533 5.01099V0.123291C57.0091 0.123291 66.2431 11.7613 66.2432 26.054C66.2432 40.3467 57.0021 51.9846 45.6533 51.9846V51.2874C56.4751 51.2874 65.5449 40.1199 65.5449 26.054Z" fill="#E1B8A8"/>
<path d="M10.3905 7.34787L7.64648 10.8037L18.3068 24.2293L21.0508 20.7734L10.3905 7.34787Z" fill="#E1B8A8"/>
<path d="M10.3907 7.34762L21.0512 20.7735L18.307 24.2296L7.64648 10.8037L10.3907 7.34762ZM18.307 23.136L20.1829 20.7735L10.3907 8.44127L8.51487 10.8037L18.307 23.136Z" fill="#E1B8A8"/>
<path d="M41.2563 5.13342C42.3819 5.13342 43.2943 3.98426 43.2943 2.56671C43.2943 1.14916 42.3819 0 41.2563 0C40.1307 0 39.2183 1.14916 39.2183 2.56671C39.2183 3.98426 40.1307 5.13342 41.2563 5.13342Z" fill="#E1B8A8"/>
<path d="M42.5962 2.56641C42.5961 1.37584 41.8549 0.698277 41.2563 0.698242C40.6578 0.698242 39.9166 1.37581 39.9165 2.56641C39.9165 3.75719 40.6578 4.43555 41.2563 4.43555V5.13379L41.0483 5.12012C40.0205 4.98891 39.2183 3.89554 39.2183 2.56641C39.2184 1.14899 40.1309 0 41.2563 0L41.4644 0.0136719C42.4921 0.144948 43.2943 1.23747 43.2944 2.56641L43.2837 2.8291C43.1793 4.12338 42.3116 5.13376 41.2563 5.13379V4.43555C41.8549 4.43551 42.5962 3.75716 42.5962 2.56641Z" fill="#E1B8A8"/>
</svg>
