<svg width="32" height="32" viewBox="0 0 32 32" fill="none" xmlns="http://www.w3.org/2000/svg">
<path d="M9.94627 32C4.46402 32 0 24.8414 0 16.0378C0 7.2343 4.46402 0.0756836 9.94627 0.0756836C15.4285 0.0756836 19.8925 7.23971 19.8925 16.0378H18.0179C18.0179 8.89544 14.3968 3.08414 9.94627 3.08414C5.49574 3.08414 1.87462 8.89544 1.87462 16.0378C1.87462 23.1802 5.49574 28.9915 9.94964 28.9915V32H9.94627Z" fill="#333B4C"/>
<path d="M22.0503 32C16.5647 32 12.104 24.8359 12.104 16.0378H13.9786C13.9786 23.1802 17.5997 28.9915 22.0536 28.9915C26.5076 28.9915 30.1287 23.1802 30.1287 16.0378C30.1287 8.89544 26.5076 3.08414 22.0536 3.08414V0.0756836C27.5393 0.0756836 31.9999 7.23971 31.9999 16.0378C31.9999 24.8359 27.5359 32 22.0536 32H22.0503Z" fill="#333B4C"/>
<path d="M5.01916 4.52297L3.6936 6.65027L8.84324 14.9146L10.1688 12.7873L5.01916 4.52297Z" fill="#333B4C"/>
<path d="M19.9296 3.15996C20.4733 3.15996 20.9141 2.45258 20.9141 1.57998C20.9141 0.707382 20.4733 0 19.9296 0C19.3859 0 18.9451 0.707382 18.9451 1.57998C18.9451 2.45258 19.3859 3.15996 19.9296 3.15996Z" fill="#333B4C"/>
</svg>
