<svg width="35" height="34" viewBox="0 0 35 34" fill="none" xmlns="http://www.w3.org/2000/svg">
<path d="M2.82843 10.7892L1.41422 12.2034L8.1951e-07 10.7892L1.41421 9.37497L2.82843 10.7892ZM12.2034 33.4142C11.0989 33.4142 10.2034 32.5188 10.2034 31.4142C10.2034 30.3096 11.0989 29.4142 12.2034 29.4142L12.2034 31.4142L12.2034 33.4142ZM12.2034 20.1642L10.7892 21.5784L1.41422 12.2034L2.82843 10.7892L4.24264 9.37497L13.6176 18.75L12.2034 20.1642ZM2.82843 10.7892L1.41421 9.37497L10.7892 -2.73988e-05L12.2034 1.41419L13.6176 2.8284L4.24264 12.2034L2.82843 10.7892ZM2.82843 10.7892L2.82843 8.78919L22.5159 8.78918L22.5159 10.7892L22.5159 12.7892L2.82843 12.7892L2.82843 10.7892ZM22.5159 31.4142L22.5159 33.4142L12.2034 33.4142L12.2034 31.4142L12.2034 29.4142L22.5159 29.4142L22.5159 31.4142ZM32.8284 21.1017L34.8284 21.1017C34.8284 27.9017 29.3159 33.4142 22.5159 33.4142L22.5159 31.4142L22.5159 29.4142C27.1068 29.4142 30.8284 25.6925 30.8284 21.1017L32.8284 21.1017ZM22.5159 10.7892L22.5159 8.78918C29.3159 8.78918 34.8284 14.3017 34.8284 21.1017L32.8284 21.1017L30.8284 21.1017C30.8284 16.5108 27.1068 12.7892 22.5159 12.7892L22.5159 10.7892Z" fill="#C8868B"/>
</svg>
